<?xml version="1.0" encoding="UTF-8"?>
<!DOCTYPE svg PUBLIC "-//W3C//DTD SVG 1.1//EN" "http://www.w3.org/Graphics/SVG/1.1/DTD/svg11.dtd">
<!-- Creator: CorelDRAW -->
<svg xmlns="http://www.w3.org/2000/svg" xml:space="preserve" width="2048px" height="2048px" style="shape-rendering:geometricPrecision; text-rendering:geometricPrecision; image-rendering:optimizeQuality; fill-rule:evenodd; clip-rule:evenodd"
viewBox="0 0 2048 2048"
 xmlns:xlink="http://www.w3.org/1999/xlink">
 <defs>
  <style type="text/css">
   <![CDATA[
    .fil2 {fill:none}
    .fil1 {fill:#00ACC1}
    .fil0 {fill:#4DD0E1}
    .fil6 {fill:#212121;fill-rule:nonzero}
    .fil5 {fill:#37474F;fill-rule:nonzero}
    .fil3 {fill:#6D4C41;fill-rule:nonzero}
    .fil4 {fill:#A1887F;fill-rule:nonzero}
   ]]>
  </style>
   <clipPath id="id0">
    <path d="M1024 0c565.539,0 1024,458.461 1024,1024 0,565.539 -458.461,1024 -1024,1024 -565.539,0 -1024,-458.461 -1024,-1024 0,-565.539 458.461,-1024 1024,-1024z"/>
   </clipPath>
 </defs>
 <g id="Layer_x0020_1">
  <metadata id="CorelCorpID_0Corel-Layer"/>
  <path class="fil0" d="M1024 0c565.539,0 1024,458.461 1024,1024 0,565.539 -458.461,1024 -1024,1024 -565.539,0 -1024,-458.461 -1024,-1024 0,-565.539 458.461,-1024 1024,-1024z"/>
  <g style="clip-path:url(#id0)">
   <g id="_341207848">
    <g>
     <polygon id="_3329218081" class="fil1" points="669.409,559.015 1805.29,1694.9 1806.39,1696.03 1807.42,1697.24 1808.37,1698.51 1809.22,1699.85 1809.99,1701.25 674.111,565.367 673.343,563.969 672.486,562.629 671.541,561.355 670.514,560.149 "/>
     <polygon id="_332921832" class="fil1" points="674.111,565.367 1809.99,1701.25 1858.65,1779.71 722.767,643.828 "/>
     <polygon id="_332922984" class="fil1" points="722.841,643.78 1858.72,1779.66 1859.39,1780.8 1859.98,1781.97 1860.5,1783.15 1860.95,1784.35 1861.34,1785.56 1861.65,1786.79 1861.9,1788.02 1862.07,1789.26 726.192,653.375 726.015,652.137 725.769,650.905 725.456,649.681 725.073,648.468 724.622,647.269 724.099,646.086 723.506,644.923 "/>
     <polygon id="_332922840" class="fil1" points="640.385,599.197 1776.27,1735.08 1623.25,1735.08 487.367,599.197 "/>
     <polygon id="_332923872" class="fil1" points="1568.85,741.95 2704.73,1877.83 2705.85,1879.14 2706.92,1880.47 2707.96,1881.83 2708.95,1883.21 2709.91,1884.6 2710.82,1886.02 2711.69,1887.45 2712.53,1888.91 2713.31,1890.39 2714.06,1891.88 2714.76,1893.39 2715.42,1894.92 2716.03,1896.46 2716.6,1898.02 2717.13,1899.6 2717.61,1901.19 2718.05,1902.8 2718.44,1904.42 2718.78,1906.06 2719.08,1907.7 2719.32,1909.36 2719.53,1911.04 2719.68,1912.72 2719.78,1914.41 2719.84,1916.12 2719.85,1917.84 2719.8,1919.56 2719.71,1921.29 2719.57,1923.04 1583.68,787.153 1583.83,785.411 1583.92,783.677 1583.96,781.953 1583.96,780.237 1583.9,778.531 1583.8,776.836 1583.64,775.153 1583.44,773.481 1583.19,771.82 1582.9,770.173 1582.56,768.539 1582.17,766.918 1581.73,765.311 1581.25,763.719 1580.72,762.142 1580.15,760.581 1579.54,759.036 1578.88,757.508 1578.18,755.997 1577.43,754.504 1576.64,753.029 1575.81,751.573 1574.94,750.136 1574.03,748.719 1573.07,747.323 1572.08,745.947 1571.04,744.592 1569.97,743.26 "/>
     <polygon id="_332923464" class="fil1" points="1583.68,787.153 2719.57,1923.04 2685,2279.03 1549.12,1143.15 "/>
     <polygon id="_332923776" class="fil1" points="1549.12,1143.15 2685,2279.03 2684.83,2280.68 2684.62,2282.32 2684.37,2283.95 2684.09,2285.57 2683.78,2287.17 2683.44,2288.77 2683.07,2290.36 2682.66,2291.93 2682.23,2293.49 2681.76,2295.03 2681.26,2296.56 2680.73,2298.08 2680.17,2299.58 2679.58,2301.07 2678.96,2302.53 2678.31,2303.99 2677.63,2305.42 2676.93,2306.84 2676.19,2308.23 2675.43,2309.61 2674.64,2310.97 2673.82,2312.3 2672.97,2313.62 2672.1,2314.92 2671.2,2316.19 2670.28,2317.44 2669.33,2318.67 2668.35,2319.87 2667.35,2321.05 2666.32,2322.2 2665.27,2323.33 2664.19,2324.43 1528.31,1188.55 1529.39,1187.45 1530.44,1186.32 1531.47,1185.16 1532.47,1183.99 1533.45,1182.78 1534.4,1181.56 1535.32,1180.31 1536.22,1179.03 1537.09,1177.74 1537.94,1176.42 1538.76,1175.08 1539.55,1173.73 1540.31,1172.35 1541.05,1170.95 1541.75,1169.54 1542.43,1168.1 1543.08,1166.65 1543.7,1165.18 1544.29,1163.7 1544.85,1162.2 1545.38,1160.68 1545.88,1159.15 1546.35,1157.61 1546.78,1156.05 1547.19,1154.47 1547.56,1152.89 1547.9,1151.29 1548.21,1149.68 1548.49,1148.07 1548.73,1146.44 1548.94,1144.8 "/>
     <polygon id="_332923488" class="fil1" points="1528.31,1188.55 2664.19,2324.43 2663.08,2325.52 2661.95,2326.57 2660.79,2327.6 2659.62,2328.61 2658.42,2329.58 2657.2,2330.53 2655.96,2331.44 2654.69,2332.33 2653.41,2333.19 2652.1,2334.01 2650.77,2334.81 2649.43,2335.57 2648.06,2336.3 2646.67,2337 2645.27,2337.66 2643.84,2338.3 2642.4,2338.89 2640.94,2339.45 2639.45,2339.98 2637.95,2340.47 2636.44,2340.93 2634.9,2341.34 2633.35,2341.72 2631.78,2342.07 2630.2,2342.37 2628.59,2342.64 2626.98,2342.86 2625.34,2343.05 2623.69,2343.19 2622.03,2343.3 2620.34,2343.36 2618.65,2343.38 1482.77,1207.5 1484.46,1207.48 1486.14,1207.41 1487.81,1207.31 1489.46,1207.16 1491.09,1206.98 1492.71,1206.75 1494.32,1206.49 1495.9,1206.18 1497.47,1205.84 1499.02,1205.46 1500.56,1205.04 1502.07,1204.59 1503.57,1204.1 1505.05,1203.57 1506.52,1203.01 1507.96,1202.41 1509.39,1201.78 1510.79,1201.12 1512.18,1200.42 1513.54,1199.69 1514.89,1198.92 1516.22,1198.13 1517.52,1197.3 1518.81,1196.45 1520.07,1195.56 1521.32,1194.64 1522.54,1193.7 1523.74,1192.72 1524.91,1191.72 1526.07,1190.69 1527.2,1189.63 "/>
     <polygon id="_332923272" class="fil1" points="726.192,653.375 1862.07,1789.26 1873.41,1854.31 737.532,718.429 "/>
     <polygon id="_332923608" class="fil1" points="822.787,1207.5 1958.67,2343.38 1974.63,2434.96 838.752,1299.08 "/>
     <polygon id="_332923200" class="fil1" points="487.367,599.197 1623.25,1735.08 1620.86,1734.96 1618.55,1734.61 1616.31,1734.03 1614.17,1733.25 1612.13,1732.26 1610.2,1731.09 1608.41,1729.75 1606.75,1728.24 470.868,592.362 472.525,593.868 474.322,595.212 476.246,596.38 478.284,597.363 480.429,598.148 482.665,598.724 484.981,599.077 "/>
     <polygon id="_332923704" class="fil1" points="1482.77,1207.5 2618.65,2343.38 1958.67,2343.38 822.787,1207.5 "/>
     <polygon id="_332924208" class="fil1" points="1489.14,1345.75 2625.02,2481.63 2545.56,2481.63 1409.68,1345.75 "/>
     <polygon id="_332924328" class="fil1" points="1415.17,1350.78 2551.05,2486.66 2552.47,2488.12 2553.86,2489.61 2555.21,2491.13 2556.52,2492.68 2557.8,2494.27 2559.04,2495.88 2560.24,2497.53 2561.4,2499.21 2562.52,2500.91 2563.61,2502.65 2564.65,2504.41 2565.65,2506.2 2566.6,2508.01 2567.52,2509.85 2568.39,2511.72 2569.22,2513.61 2570,2515.52 2570.74,2517.45 2571.42,2519.41 2572.07,2521.39 2572.66,2523.39 2573.21,2525.41 2573.71,2527.45 2574.16,2529.51 2574.55,2531.59 2574.9,2533.69 2575.2,2535.8 2575.44,2537.93 2575.63,2540.07 2575.77,2542.23 2575.85,2544.41 2575.88,2546.59 1440,1410.71 1439.97,1408.52 1439.89,1406.35 1439.75,1404.19 1439.56,1402.05 1439.32,1399.92 1439.02,1397.81 1438.67,1395.71 1438.28,1393.63 1437.83,1391.57 1437.33,1389.53 1436.78,1387.51 1436.19,1385.51 1435.54,1383.53 1434.85,1381.57 1434.12,1379.64 1433.34,1377.72 1432.51,1375.83 1431.64,1373.97 1430.72,1372.13 1429.77,1370.31 1428.77,1368.53 1427.73,1366.76 1426.64,1365.03 1425.52,1363.33 1424.36,1361.65 1423.16,1360 1421.92,1358.39 1420.64,1356.8 1419.33,1355.25 1417.98,1353.72 1416.59,1352.24 "/>
     <polygon id="_332924400" class="fil1" points="1300.8,1345.75 2436.68,2481.63 2106.26,2481.63 970.38,1345.75 "/>
     <polygon id="_332924496" class="fil1" points="1415.17,1470.64 2551.05,2606.53 2549.6,2607.95 2548.11,2609.33 2546.59,2610.68 2545.03,2612 2543.45,2613.27 2541.83,2614.51 2540.18,2615.71 2538.51,2616.88 2536.8,2618 2535.07,2619.08 2533.31,2620.12 2531.52,2621.12 2529.7,2622.08 2527.86,2622.99 2526,2623.86 2524.11,2624.69 2522.2,2625.47 2520.26,2626.21 2518.3,2626.9 2516.32,2627.54 2514.32,2628.14 2512.3,2628.68 2510.26,2629.18 2508.2,2629.63 2506.12,2630.03 2504.03,2630.38 2501.91,2630.67 2499.78,2630.91 2497.64,2631.11 2495.48,2631.24 2493.31,2631.33 2491.12,2631.35 1355.24,1495.47 1357.43,1495.44 1359.6,1495.36 1361.76,1495.22 1363.9,1495.03 1366.03,1494.79 1368.15,1494.49 1370.24,1494.15 1372.32,1493.75 1374.38,1493.3 1376.42,1492.8 1378.44,1492.25 1380.44,1491.66 1382.42,1491.02 1384.38,1490.33 1386.32,1489.59 1388.23,1488.81 1390.12,1487.98 1391.98,1487.11 1393.82,1486.2 1395.64,1485.24 1397.43,1484.24 1399.19,1483.2 1400.92,1482.12 1402.63,1480.99 1404.3,1479.83 1405.95,1478.63 1407.57,1477.39 1409.15,1476.11 1410.71,1474.8 1412.23,1473.45 1413.71,1472.06 "/>
     <polygon id="_332924544" class="fil1" points="1355.24,1495.47 2491.12,2631.35 2488.93,2631.33 2486.76,2631.24 2484.6,2631.11 2482.46,2630.91 2480.33,2630.67 2478.21,2630.38 2476.12,2630.03 2474.04,2629.63 2471.98,2629.18 2469.94,2628.68 2467.92,2628.14 2465.92,2627.54 2463.94,2626.9 2461.98,2626.21 2460.04,2625.47 2458.13,2624.69 2456.24,2623.86 2454.38,2622.99 2452.54,2622.08 2450.72,2621.12 2448.93,2620.12 2447.17,2619.08 2445.44,2618 2443.73,2616.88 2442.06,2615.71 2440.41,2614.51 2438.79,2613.27 2437.21,2612 2435.65,2610.68 2434.13,2609.33 2432.64,2607.95 1296.76,1472.06 1298.25,1473.45 1299.77,1474.8 1301.33,1476.11 1302.91,1477.39 1304.53,1478.63 1306.18,1479.83 1307.85,1480.99 1309.56,1482.12 1311.29,1483.2 1313.05,1484.24 1314.84,1485.24 1316.65,1486.2 1318.5,1487.11 1320.36,1487.98 1322.25,1488.81 1324.16,1489.59 1326.1,1490.33 1328.06,1491.02 1330.04,1491.66 1332.04,1492.25 1334.06,1492.8 1336.1,1493.3 1338.16,1493.75 1340.24,1494.15 1342.33,1494.49 1344.45,1494.79 1346.57,1495.03 1348.72,1495.22 1350.88,1495.36 1353.05,1495.44 "/>
     <polygon id="_332923896" class="fil1" points="1440,1410.71 2575.88,2546.59 2575.85,2548.78 2575.77,2550.96 2575.63,2553.12 2575.44,2555.26 2575.2,2557.39 2574.9,2559.5 2574.55,2561.6 2574.16,2563.67 2573.71,2565.73 2573.21,2567.78 2572.66,2569.8 2572.07,2571.8 2571.42,2573.78 2570.74,2575.73 2570,2577.67 2569.22,2579.58 2568.39,2581.47 2567.52,2583.34 2566.6,2585.18 2565.65,2586.99 2564.65,2588.78 2563.61,2590.54 2562.52,2592.28 2561.4,2593.98 2560.24,2595.66 2559.04,2597.31 2557.8,2598.92 2556.52,2600.51 2555.21,2602.06 2553.86,2603.58 2552.47,2605.07 2551.05,2606.53 1415.17,1470.64 1416.59,1469.19 1417.98,1467.7 1419.33,1466.18 1420.64,1464.62 1421.92,1463.04 1423.16,1461.42 1424.36,1459.78 1425.52,1458.1 1426.64,1456.39 1427.72,1454.66 1428.77,1452.9 1429.77,1451.11 1430.72,1449.3 1431.64,1447.46 1432.51,1445.59 1433.34,1443.7 1434.12,1441.79 1434.85,1439.85 1435.54,1437.89 1436.19,1435.91 1436.78,1433.91 1437.33,1431.89 1437.83,1429.85 1438.28,1427.79 1438.67,1425.71 1439.02,1423.62 1439.32,1421.51 1439.56,1419.38 1439.75,1417.23 1439.89,1415.07 1439.97,1412.9 "/>
     <polygon id="_332923944" class="fil1" points="973.867,1348.84 2109.75,2484.72 2110.42,2485.36 2111.09,2486.01 2111.76,2486.66 975.875,1350.78 975.212,1350.13 974.542,1349.48 "/>
     <polygon id="_332925360" class="fil1" points="975.875,1350.78 2111.76,2486.66 2113.18,2488.12 2114.56,2489.61 2115.91,2491.13 2117.23,2492.68 2118.5,2494.27 2119.74,2495.88 2120.94,2497.53 2122.11,2499.21 2123.23,2500.91 2124.31,2502.65 2125.35,2504.41 2126.35,2506.2 2127.31,2508.01 2128.22,2509.85 2129.09,2511.72 2129.92,2513.61 2130.7,2515.52 2131.44,2517.45 2132.13,2519.41 2132.77,2521.39 2133.37,2523.39 2133.91,2525.41 2134.41,2527.45 2134.86,2529.51 2135.26,2531.59 2135.61,2533.69 2135.9,2535.8 2136.14,2537.93 2136.34,2540.07 2136.47,2542.23 2136.56,2544.41 2136.58,2546.59 1000.7,1410.71 1000.67,1408.52 1000.59,1406.35 1000.45,1404.19 1000.26,1402.05 1000.02,1399.92 999.725,1397.81 999.378,1395.71 998.98,1393.63 998.531,1391.57 998.032,1389.53 997.485,1387.51 996.89,1385.51 996.248,1383.53 995.558,1381.57 994.822,1379.64 994.04,1377.72 993.213,1375.83 992.343,1373.97 991.428,1372.13 990.471,1370.31 989.47,1368.53 988.43,1366.76 987.347,1365.03 986.225,1363.33 985.063,1361.65 983.861,1360 982.622,1358.39 981.346,1356.8 980.031,1355.25 978.681,1353.72 977.296,1352.24 "/>
     <polygon id="_332925120" class="fil1" points="861.506,1345.75 1997.39,2481.63 1955.32,2481.63 819.434,1345.75 "/>
     <polygon id="_332925144" class="fil1" points="819.434,1345.75 1955.32,2481.63 1953.22,2481.56 1951.17,2481.31 1949.16,2480.88 1947.22,2480.28 1945.34,2479.51 1943.54,2478.59 1941.83,2477.52 1940.22,2476.31 1938.71,2474.96 802.834,1339.08 804.336,1340.43 805.948,1341.64 807.658,1342.71 809.457,1343.63 811.335,1344.4 813.282,1345 815.287,1345.43 817.341,1345.68 "/>
     <polygon id="_332924760" class="fil1" points="915.943,1495.47 2051.82,2631.35 2049.64,2631.33 2047.46,2631.24 2045.3,2631.11 2043.16,2630.91 2041.03,2630.67 2038.92,2630.38 2036.82,2630.03 2034.74,2629.63 2032.68,2629.18 2030.64,2628.68 2028.62,2628.14 2026.62,2627.54 2024.64,2626.9 2022.68,2626.21 2020.75,2625.47 2018.84,2624.69 2016.95,2623.86 2015.08,2622.99 2013.24,2622.08 2011.43,2621.12 2009.64,2620.12 2007.88,2619.08 2006.14,2618 2004.44,2616.88 2002.76,2615.71 2001.11,2614.51 1999.5,2613.27 1997.91,2612 1996.36,2610.68 1994.84,2609.33 858.955,1473.45 860.477,1474.8 862.031,1476.11 863.617,1477.39 865.233,1478.63 866.88,1479.83 868.556,1480.99 870.262,1482.12 871.996,1483.2 873.757,1484.24 875.545,1485.24 877.359,1486.2 879.199,1487.11 881.064,1487.98 882.954,1488.81 884.867,1489.59 886.803,1490.33 888.761,1491.02 890.741,1491.66 892.742,1492.25 894.762,1492.8 896.803,1493.3 898.863,1493.75 900.941,1494.15 903.036,1494.49 905.149,1494.79 907.279,1495.03 909.422,1495.22 911.583,1495.36 913.756,1495.44 "/>
     <polygon id="_332925792" class="fil1" points="1000.7,1410.71 2136.58,2546.59 2136.56,2548.78 2136.47,2550.96 2136.34,2553.12 2136.14,2555.26 2135.9,2557.39 2135.61,2559.5 2135.26,2561.6 2134.86,2563.67 2134.41,2565.73 2133.91,2567.78 2133.37,2569.8 2132.77,2571.8 2132.13,2573.78 2131.44,2575.73 2130.7,2577.67 2129.92,2579.58 2129.09,2581.47 2128.22,2583.34 2127.31,2585.18 2126.35,2586.99 2125.35,2588.78 2124.31,2590.54 2123.23,2592.28 2122.1,2593.98 2120.94,2595.66 2119.74,2597.31 2118.5,2598.92 2117.23,2600.51 2115.91,2602.06 2114.56,2603.58 2113.18,2605.07 2111.75,2606.53 975.874,1470.64 977.294,1469.19 978.68,1467.7 980.03,1466.18 981.344,1464.62 982.621,1463.04 983.86,1461.42 985.061,1459.78 986.224,1458.1 987.347,1456.39 988.429,1454.66 989.47,1452.9 990.47,1451.11 991.428,1449.3 992.342,1447.46 993.213,1445.59 994.04,1443.7 994.821,1441.79 995.558,1439.85 996.248,1437.89 996.89,1435.91 997.485,1433.91 998.032,1431.89 998.531,1429.85 998.98,1427.79 999.378,1425.71 999.725,1423.62 1000.02,1421.51 1000.26,1419.38 1000.45,1417.23 1000.59,1415.07 1000.67,1412.9 "/>
     <polygon id="_332925816" class="fil1" points="975.874,1470.64 2111.75,2606.53 2110.3,2607.95 2108.81,2609.33 2107.29,2610.68 2105.74,2612 2104.15,2613.27 2102.53,2614.51 2100.89,2615.71 2099.21,2616.88 2097.51,2618 2095.77,2619.08 2094.01,2620.12 2092.22,2621.12 2090.41,2622.08 2088.57,2622.99 2086.7,2623.86 2084.81,2624.69 2082.9,2625.47 2080.97,2626.21 2079.01,2626.9 2077.03,2627.54 2075.03,2628.14 2073.01,2628.68 2070.96,2629.18 2068.9,2629.63 2066.83,2630.03 2064.73,2630.38 2062.62,2630.67 2060.49,2630.91 2058.35,2631.11 2056.19,2631.24 2054.01,2631.33 2051.82,2631.35 915.943,1495.47 918.131,1495.44 920.304,1495.36 922.464,1495.22 924.608,1495.03 926.737,1494.79 928.85,1494.49 930.946,1494.15 933.023,1493.75 935.083,1493.3 937.124,1492.8 939.145,1492.25 941.146,1491.66 943.126,1491.02 945.085,1490.33 947.02,1489.59 948.933,1488.81 950.822,1487.98 952.687,1487.11 954.528,1486.2 956.342,1485.24 958.13,1484.24 959.891,1483.2 961.625,1482.12 963.33,1480.99 965.006,1479.83 966.653,1478.63 968.27,1477.39 969.855,1476.11 971.409,1474.8 972.93,1473.45 974.418,1472.06 "/>
     <polygon id="_332925624" class="fil1" points="1505.64,1305.91 2641.52,2441.8 2643.03,2443.45 2644.37,2445.25 2645.54,2447.17 2646.52,2449.21 2647.31,2451.36 2647.88,2453.59 2648.23,2455.91 2648.35,2458.3 1512.47,1322.41 1512.35,1320.03 1512,1317.71 1511.42,1315.48 1510.64,1313.33 1509.66,1311.29 1508.49,1309.37 1507.15,1307.57 "/>
     <polygon id="_332925864" class="fil1" points="1512.47,1322.41 2648.35,2458.3 2648.23,2460.68 2647.88,2463 2647.31,2465.23 2646.52,2467.38 2645.54,2469.42 2644.37,2471.34 2643.03,2473.14 2641.52,2474.8 2639.86,2476.3 2638.07,2477.65 2636.14,2478.81 2634.1,2479.8 2631.96,2480.58 2629.72,2481.16 2627.41,2481.51 2625.02,2481.63 1489.14,1345.75 1491.53,1345.63 1493.84,1345.27 1496.08,1344.7 1498.22,1343.91 1500.26,1342.93 1502.19,1341.76 1503.98,1340.42 1505.64,1338.91 1507.15,1337.26 1508.49,1335.46 1509.66,1333.54 1510.64,1331.5 1511.42,1329.35 1512,1327.12 1512.35,1324.8 "/>
    </g>
    <path id="_341208352" class="fil1" d="M464.033 575.863c0,-12.887 10.448,-23.3339 23.3339,-23.3339l165.9 0c9.11103,0 17.0008,5.22284 20.8441,12.8374l48.6555 78.4607 0.0744095 -0.0472441c1.86969,3.01418 2.96693,6.28937 3.35079,9.5941l11.3398 65.054 779.799 0c1.61693,0 3.76772,0.132284 6.40867,0.387402 15.8528,1.5378 30.6862,8.67875 41.5394,19.3441 13.3217,13.0925 20.2099,30.3662 18.4063,48.9933l-34.5626 355.995c-1.71024,17.6291 -9.19607,33.7831 -20.8134,45.4004 -11.7036,11.7036 -27.378,18.9496 -45.5398,18.9496l-659.982 0 15.965 91.5816 650.388 0c12.887,0 23.3339,10.4469 23.3339,23.3339 0,12.8858 -10.4469,23.3339 -23.3339,23.3339l-79.4634 0c1.90394,1.59803 3.73819,3.27638 5.49449,5.03268 15.3378,15.339 24.8268,36.5292 24.8268,59.9315 0,23.4024 -9.48898,44.5926 -24.828,59.9315 -15.3378,15.3378 -36.528,24.8268 -59.9304,24.8268 -23.4024,0 -44.5926,-9.48898 -59.9315,-24.8268 -15.339,-15.339 -24.8268,-36.5292 -24.8268,-59.9315 0,-23.4024 9.4878,-44.5926 24.8268,-59.9315 1.7563,-1.7563 3.59055,-3.43465 5.49449,-5.03268l-330.422 0c1.90394,1.59803 3.73819,3.27638 5.49449,5.03268 15.3378,15.339 24.8268,36.5292 24.8268,59.9315 0,23.4024 -9.48898,44.5926 -24.828,59.9315 -15.3366,15.3378 -36.528,24.8268 -59.9304,24.8268 -23.4024,0 -44.5926,-9.48898 -59.9315,-24.8268 -15.339,-15.339 -24.8268,-36.5292 -24.8268,-59.9315 0,-23.4024 9.4878,-44.5926 24.8268,-59.9315 1.7563,-1.7563 3.59055,-3.43465 5.49449,-5.03268l-42.0721 0c-11.2488,0.140551 -21.2599,-7.88859 -23.2536,-19.3264l0.0188977 -0.0885827 -115.394 -661.954 -40.4209 -65.1815 -153.018 0c-12.8858,0 -23.3339,-10.448 -23.3339,-23.3339z"/>
   </g>
  </g>
  <path class="fil2" d="M1024 0c565.539,0 1024,458.461 1024,1024 0,565.539 -458.461,1024 -1024,1024 -565.539,0 -1024,-458.461 -1024,-1024 0,-565.539 458.461,-1024 1024,-1024z"/>
  <path class="fil3" d="M487.333 552.53c-12.8858,0 -23.3339,10.4469 -23.3339,23.3339 0,12.8858 10.448,23.3339 23.3339,23.3339l153.018 0 40.4209 65.1815 115.394 661.954 22.9689 -3.9189 -22.9878 4.00748c1.9937,11.4378 12.0047,19.4669 23.2536,19.3264l669.706 0c12.887,0 23.3339,-10.448 23.3339,-23.3339 0,-12.887 -10.4469,-23.3339 -23.3339,-23.3339l-650.388 0 -15.965 -91.5816 659.982 0c18.1618,0 33.8362,-7.24607 45.5398,-18.9496 11.6173,-11.6173 19.1032,-27.7713 20.8134,-45.4004l34.5626 -355.995c0.233858,-2.41536 0.349607,-4.2874 0.349607,-5.62205 0,-16.924 -7.29213,-32.1047 -18.7559,-43.3713 -10.8532,-10.6654 -25.6866,-17.8063 -41.5394,-19.3441 -2.64095,-0.255118 -4.79174,-0.387402 -6.40867,-0.387402l-779.799 0 -11.3398 -65.054c-0.383859,-3.30473 -1.4811,-6.57993 -3.35079,-9.5941l-0.0744095 0.0472441 -48.6555 -78.4607c-3.84331,-7.61457 -11.7331,-12.8374 -20.8441,-12.8374l-165.9 0z"/>
  <path class="fil4" d="M937.337 1018.4l194.973 0 0 -98.6611 -194.973 0 0 98.6611zm421.637 0l0 -98.6611 -194.973 0 0 98.6611 194.973 0zm31.6914 -276.636l0 143.111 159.308 0 -4.68662 34.8638 -154.622 0 0 98.6611 147.235 0 -4.54252 34.8638 -142.693 0 0 130.903 -31.6914 0 0 -130.903 -194.973 0 0 130.903 -31.6914 0 0 -130.903 -194.973 0 0 130.903 -31.6914 0 0 -130.903 -121.73 0 -7.17993 -34.8638 128.91 0 0 -98.6611 -133.576 0 -7.4067 -34.8638 140.982 0 0 -143.111 31.6914 0 0 143.111 194.973 0 0 -143.111 31.6914 0 0 143.111 194.973 0 0 -143.111 31.6914 0z"/>
  <path class="fil5" d="M915.909 1325.95c23.4024,0 44.5926,9.4878 59.9315,24.8268 15.3378,15.339 24.8268,36.5292 24.8268,59.9315 0,23.4024 -9.48898,44.5926 -24.828,59.9315 -15.3366,15.3378 -36.528,24.8268 -59.9304,24.8268 -23.4024,0 -44.5926,-9.48898 -59.9315,-24.8268 -15.339,-15.339 -24.8268,-36.5292 -24.8268,-59.9315 0,-23.4024 9.4878,-44.5926 24.8268,-59.9315 15.3378,-15.339 36.5292,-24.8268 59.9315,-24.8268z"/>
  <path class="fil5" d="M1355.2 1325.95c23.4024,0 44.5926,9.4878 59.9315,24.8268 15.3378,15.339 24.8268,36.5292 24.8268,59.9315 0,23.4024 -9.48898,44.5926 -24.828,59.9315 -15.3378,15.3378 -36.528,24.8268 -59.9304,24.8268 -23.4024,0 -44.5926,-9.48898 -59.9315,-24.8268 -15.339,-15.339 -24.8268,-36.5292 -24.8268,-59.9315 0,-23.4024 9.4878,-44.5926 24.8268,-59.9315 15.3378,-15.339 36.528,-24.8268 59.9315,-24.8268z"/>
  <path class="fil6" d="M1355.2 1370.55c11.0894,0 21.1311,4.49646 28.3996,11.7662 7.26851,7.26851 11.765,17.3102 11.765,28.4008 0,11.0894 -4.49646,21.1311 -11.765,28.3996 -7.26851,7.26851 -17.3102,11.765 -28.3996,11.765 -11.0906,0 -21.1323,-4.49646 -28.4008,-11.765 -7.26969,-7.26851 -11.7662,-17.3102 -11.7662,-28.3996 0,-11.0906 4.49646,-21.1323 11.7662,-28.4008 7.26733,-7.26969 17.3102,-11.7662 28.4008,-11.7662z"/>
  <path class="fil6" d="M915.909 1370.55c11.0906,0 21.1323,4.49646 28.4008,11.7662 7.26851,7.26851 11.765,17.3102 11.765,28.4008 0,11.0894 -4.49646,21.1311 -11.765,28.3996 -7.26851,7.26851 -17.3102,11.765 -28.4008,11.765 -11.0894,0 -21.1311,-4.49646 -28.3996,-11.765 -7.26969,-7.26851 -11.7662,-17.3102 -11.7662,-28.3996 0,-11.0906 4.49646,-21.1323 11.7662,-28.4008 7.26733,-7.26969 17.3102,-11.7662 28.3996,-11.7662z"/>
 </g>
</svg>
